<mxfile host="app.diagrams.net" agent="Mozilla/5.0 (Windows NT 10.0; Win64; x64) AppleWebKit/537.36 (KHTML, like Gecko) Chrome/135.0.0.0 Safari/537.36" version="27.0.9">
  <diagram name="Page-1" id="H9AN4RYKcDL5lwrLZoHS">
    <mxGraphModel dx="524" dy="278" grid="1" gridSize="10" guides="1" tooltips="1" connect="1" arrows="1" fold="1" page="1" pageScale="1" pageWidth="480" pageHeight="270" math="0" shadow="0">
      <root>
        <mxCell id="0" />
        <mxCell id="1" parent="0" />
        <mxCell id="obreZhUweuXHr63o41EW-1" value="" style="rounded=0;whiteSpace=wrap;html=1;fillColor=#333333;strokeColor=#333333;movable=0;resizable=0;rotatable=0;deletable=0;editable=0;locked=1;connectable=0;" vertex="1" parent="1">
          <mxGeometry width="480" height="270" as="geometry" />
        </mxCell>
        <mxCell id="obreZhUweuXHr63o41EW-2" value="&lt;font style=&quot;font-size: 9px;&quot;&gt;&lt;b&gt;Data types&lt;/b&gt;&lt;/font&gt;" style="rounded=0;whiteSpace=wrap;html=1;fillColor=#f8cecc;strokeColor=#b85450;" vertex="1" parent="1">
          <mxGeometry x="210" y="10" width="60" height="20" as="geometry" />
        </mxCell>
        <mxCell id="obreZhUweuXHr63o41EW-3" value="" style="rounded=0;whiteSpace=wrap;html=1;strokeColor=#FFB570;fillColor=#333333;" vertex="1" parent="1">
          <mxGeometry x="20" y="50" width="130" height="210" as="geometry" />
        </mxCell>
        <mxCell id="obreZhUweuXHr63o41EW-4" value="" style="rounded=1;whiteSpace=wrap;html=1;fillColor=#ffcccc;strokeColor=#36393d;" vertex="1" parent="1">
          <mxGeometry x="33.75" y="79" width="102.5" height="20" as="geometry" />
        </mxCell>
        <mxCell id="obreZhUweuXHr63o41EW-8" value="&lt;font style=&quot;font-size: 9px;&quot;&gt;&lt;b style=&quot;&quot;&gt;short&amp;nbsp;&lt;/b&gt;: 2 bytes&lt;/font&gt;" style="rounded=1;whiteSpace=wrap;html=1;fillColor=#ffcccc;strokeColor=#36393d;" vertex="1" parent="1">
          <mxGeometry x="33.75" y="101" width="102.5" height="20" as="geometry" />
        </mxCell>
        <mxCell id="obreZhUweuXHr63o41EW-9" value="&lt;font style=&quot;font-size: 9px;&quot;&gt;&lt;b&gt;int&amp;nbsp;&lt;/b&gt;: 4 bytes&lt;/font&gt;" style="rounded=1;whiteSpace=wrap;html=1;fillColor=#ffcccc;strokeColor=#36393d;" vertex="1" parent="1">
          <mxGeometry x="34.75" y="123" width="102.5" height="20" as="geometry" />
        </mxCell>
        <mxCell id="obreZhUweuXHr63o41EW-10" value="" style="rounded=1;whiteSpace=wrap;html=1;fillColor=#ffcccc;strokeColor=#36393d;" vertex="1" parent="1">
          <mxGeometry x="33.75" y="145" width="102.5" height="20" as="geometry" />
        </mxCell>
        <mxCell id="obreZhUweuXHr63o41EW-11" value="" style="rounded=1;whiteSpace=wrap;html=1;fillColor=#ffcccc;strokeColor=#36393d;" vertex="1" parent="1">
          <mxGeometry x="33.75" y="167" width="102.5" height="20" as="geometry" />
        </mxCell>
        <mxCell id="obreZhUweuXHr63o41EW-12" value="" style="rounded=1;whiteSpace=wrap;html=1;fillColor=#ffcccc;strokeColor=#36393d;" vertex="1" parent="1">
          <mxGeometry x="33.75" y="189" width="102.5" height="20" as="geometry" />
        </mxCell>
        <mxCell id="obreZhUweuXHr63o41EW-13" value="" style="rounded=1;whiteSpace=wrap;html=1;fillColor=#ffcccc;strokeColor=#36393d;" vertex="1" parent="1">
          <mxGeometry x="33.75" y="211" width="102.5" height="20" as="geometry" />
        </mxCell>
        <mxCell id="obreZhUweuXHr63o41EW-14" value="" style="rounded=1;whiteSpace=wrap;html=1;fillColor=#ffcccc;strokeColor=#36393d;" vertex="1" parent="1">
          <mxGeometry x="33.75" y="233" width="102.5" height="20" as="geometry" />
        </mxCell>
        <mxCell id="obreZhUweuXHr63o41EW-15" value="&lt;font style=&quot;font-size: 9px; color: rgb(255, 255, 255);&quot;&gt;&lt;b style=&quot;&quot;&gt;Primitive Data Types&lt;/b&gt;&lt;/font&gt;" style="text;html=1;align=center;verticalAlign=middle;whiteSpace=wrap;rounded=0;" vertex="1" parent="1">
          <mxGeometry x="25" y="49" width="120" height="30" as="geometry" />
        </mxCell>
        <mxCell id="obreZhUweuXHr63o41EW-16" value="&lt;font style=&quot;color: rgb(0, 0, 0);&quot;&gt;&lt;b style=&quot;&quot;&gt;&lt;font style=&quot;font-size: 9px;&quot;&gt;byte&amp;nbsp;&lt;/font&gt;&lt;/b&gt;&lt;font style=&quot;font-size: 9px;&quot;&gt;: &lt;/font&gt;&lt;font style=&quot;font-size: 9px;&quot;&gt;1 byte&lt;/font&gt;&lt;/font&gt;" style="text;html=1;align=center;verticalAlign=middle;whiteSpace=wrap;rounded=0;" vertex="1" parent="1">
          <mxGeometry x="34.75" y="74" width="90" height="30" as="geometry" />
        </mxCell>
        <mxCell id="obreZhUweuXHr63o41EW-17" value="&lt;font style=&quot;font-size: 9px;&quot;&gt;&lt;b&gt;long&lt;/b&gt; : 8 bytes&lt;/font&gt;" style="text;html=1;align=center;verticalAlign=middle;whiteSpace=wrap;rounded=0;" vertex="1" parent="1">
          <mxGeometry x="36" y="140" width="100" height="30" as="geometry" />
        </mxCell>
        <mxCell id="obreZhUweuXHr63o41EW-18" value="&lt;font style=&quot;font-size: 9px;&quot;&gt;&lt;b style=&quot;&quot;&gt;float&lt;/b&gt; : 4 bytes&lt;/font&gt;" style="text;html=1;align=center;verticalAlign=middle;whiteSpace=wrap;rounded=0;" vertex="1" parent="1">
          <mxGeometry x="21" y="162" width="130" height="30" as="geometry" />
        </mxCell>
        <mxCell id="obreZhUweuXHr63o41EW-20" value="&lt;font style=&quot;font-size: 9px;&quot;&gt;&lt;b&gt;double&lt;/b&gt; : 8 bytes&lt;/font&gt;" style="text;html=1;align=center;verticalAlign=middle;whiteSpace=wrap;rounded=0;" vertex="1" parent="1">
          <mxGeometry x="21" y="184" width="130" height="30" as="geometry" />
        </mxCell>
        <mxCell id="obreZhUweuXHr63o41EW-21" value="&lt;font style=&quot;font-size: 9px;&quot;&gt;&lt;b style=&quot;&quot;&gt;char&lt;/b&gt; : 2 bytes&lt;/font&gt;" style="text;html=1;align=center;verticalAlign=middle;whiteSpace=wrap;rounded=0;" vertex="1" parent="1">
          <mxGeometry x="46" y="206" width="80" height="30" as="geometry" />
        </mxCell>
        <mxCell id="obreZhUweuXHr63o41EW-22" value="&lt;font style=&quot;font-size: 9px;&quot;&gt;&lt;b&gt;boolean&lt;/b&gt; : 1 bit&lt;/font&gt;" style="text;html=1;align=center;verticalAlign=middle;whiteSpace=wrap;rounded=0;" vertex="1" parent="1">
          <mxGeometry x="36.25" y="228" width="100" height="30" as="geometry" />
        </mxCell>
      </root>
    </mxGraphModel>
  </diagram>
</mxfile>
